<svg xmlns="http://www.w3.org/2000/svg" style="display: none;">
  <defs>
    <symbol id="send" width="24" height="24" viewBox="0 0 24 24">
      <path d="M2.01 21 23 12 2.01 3 2 10l15 2-15 2 .01 7Z"/>
    </symbol>
    <symbol id="arrow-right" width="24" height="24" viewBox="0 0 24 24">
      <path d="m14.2 4.8 6.5 6.5.71.7-.7.7-6.5 6.5-1.42-1.4 4.8-4.8H3v-2h14.59l-4.8-4.8 1.42-1.4Z"/>
    </symbol>
    <symbol id="chevron-right" width="24" height="24" viewBox="0 0 24 24">
      <path d="m13.59 12-5.8-5.8 1.42-1.4 6.5 6.5.7.7-.7.7-6.5 6.5-1.42-1.4 5.8-5.8Z"/>
    </symbol>
    <symbol id="github" width="24" height="24" viewBox="0 0 24 24">
      <path d="M12 2a10 10 0 0 0-3.16 19.5c.5.08.66-.23.66-.5v-1.69c-2.77.6-3.36-1.34-3.36-1.34-.46-1.16-1.11-1.47-1.11-1.47-.91-.62.07-.6.07-.6 1 .07 1.53 1.03 1.53 1.03.87 1.52 2.34 1.07 2.91.83.09-.65.35-1.09.63-1.34-2.22-.25-4.55-1.11-4.55-4.92 0-1.11.38-2 1.03-2.71-.1-.25-.45-1.29.1-2.64 0 0 .84-.27 2.75 1.02a9.42 9.42 0 0 1 5 0c1.91-1.29 2.75-1.02 2.75-1.02.55 1.35.2 2.39.1 2.64.65.71 1.03 1.6 1.03 2.71 0 3.82-2.34 4.66-4.57 4.91.36.31.69.92.69 1.85V21c0 .27.16.59.67.5a10.03 10.03 0 0 0 3.9-16.57A10 10 0 0 0 12 2Z"/>
    </symbol>
    <symbol id="menu" width="24" height="24" viewBox="0 0 24 24">
      <path d="M22 6H2V4h20v2ZM2 13h16v-2H2v2Zm0 7h20v-2H2v2Z"/>
    </symbol>
    <symbol id="linkedin" width="24" height="24" viewBox="0 0 24 24">
    <path d="M20.47,2H3.53A1.45,1.45,0,0,0,2.06,3.43V20.57A1.45,1.45,0,0,0,3.53,22H20.47a1.45,1.45,0,0,0,1.47-1.43V3.43A1.45,1.45,0,0,0,20.47,2ZM8.09,18.74h-3v-9h3ZM6.59,8.48h0a1.56,1.56,0,1,1,0-3.12,1.57,1.57,0,1,1,0,3.12ZM18.91,18.74h-3V13.91c0-1.21-.43-2-1.52-2A1.65,1.65,0,0,0,12.85,13a2,2,0,0,0-.1.73v5h-3s0-8.18,0-9h3V11A3,3,0,0,1,15.46,9.5c2,0,3.45,1.29,3.45,4.06Z"/>
    </symbol>
    <symbol id="copy" width="24" height="24" viewBox="0 0 24 24">
      <path d="M3 2h12v4H7v10H3V2Zm6 20V8h12v11l-3 3H9Z"/>
    </symbol>
    <symbol id="error" width="24" height="24" viewBox="0 0 24 24">
      <path d="M19.7 19H4.3L12 5.07 19.7 19ZM11.12 2.52l-9.39 17L2.61 21h18.78l.88-1.48-9.4-17h-1.75ZM11 14v-4h2v4h-2Zm0 3v-2h2v2h-2Z"/>
    </symbol>
    <symbol id="arrow-left" width="24" height="24" viewBox="0 0 24 24">
      <path d="m9.8 19.2-6.5-6.5-.71-.7.7-.7 6.5-6.5 1.42 1.4L6.4 11H21v2H6.41l4.8 4.8-1.42 1.4Z"/>
    </symbol>
    <symbol id="check" width="24" height="24" viewBox="0 0 24 24">
      <path d="m20.2 7.2-10 10-.7.71-.7-.7-5-5 1.4-1.42 4.3 4.3 9.3-9.3 1.4 1.42Z"/>
    </symbol>
    <symbol id="link" width="24" height="24" viewBox="0 0 24 24">
      <path d="M9 4 8 5v2h2V6h10v7H10v-2H8v3l1 1h12l1-1V5l-1-1H9Zm2 4H3L2 9v9l1 1h12l1-1v-2h-2v1H4v-7h10v2h2V9l-1-1h-4Z"/>
    </symbol>
    <symbol id="close" width="24" height="24" viewBox="0 0 24 24">
      <path d="M19 6.41 17.59 5 12 10.59 6.41 5 5 6.41 10.59 12 5 17.59 6.41 19 12 13.41 17.59 19 19 17.59 13.41 12 19 6.41Z"/>
    </symbol>
    <symbol id="pause" width="24" height="24" viewBox="0 0 24 24">
      <path d="M6 19h4V5H6v14Zm8-14v14h4V5h-4Z"/>
    </symbol>
    <symbol id="play" width="24" height="24" viewBox="0 0 24 24">
      <path d="M8 5v14l11-7L8 5Z"/>
    </symbol>
   <symbol id="superprof" width="26" height="26" viewBox="0 0 24 24">
<path d="M13.471 2.539c0.189 0.11 0.374 0.226 0.558 0.343 0.276 0.175 0.559 0.335 0.844 0.494l0.15 0.084q0.144 0.081 0.288 0.161a36.101 36.101 0 0 1 0.355 0.203l0.098 0.057q0.125 0.072 0.249 0.145c0.128 0.07 0.255 0.126 0.392 0.177v0.101l0.111 0.042c0.135 0.056 0.257 0.119 0.384 0.191l0.14 0.08 0.149 0.085 0.155 0.088a291.696 291.696 0 0 1 0.32 0.182q0.226 0.129 0.452 0.256c0.41 0.232 0.817 0.465 1.211 0.723 0.116 0.074 0.235 0.139 0.356 0.203 0.65 0.358 0.986 0.958 1.228 1.642 0.042 0.211 0.057 0.412 0.058 0.627l0.001 0.194 0 0.211 0.001 0.224q0.001 0.366 0.002 0.733l0.001 0.253q0.001 0.596 0.002 1.192 0.001 0.685 0.004 1.37 0.002 0.531 0.002 1.062c0 0.211 0.001 0.422 0.002 0.633q0.002 0.298 0.001 0.597 0 0.108 0.001 0.217c0.009 0.93 -0.21 1.757 -0.862 2.446 -0.208 0.191 -0.437 0.331 -0.682 0.47l-0.279 0.159c-0.089 0.051 -0.179 0.101 -0.269 0.15 -0.159 0.089 -0.159 0.089 -0.279 0.197 -0.15 0.114 -0.299 0.178 -0.472 0.252 -0.184 0.082 -0.354 0.186 -0.526 0.29q-0.112 0.067 -0.225 0.134l-0.114 0.068c-0.179 0.105 -0.359 0.206 -0.541 0.307 -0.257 0.143 -0.512 0.29 -0.762 0.444 -0.151 0.089 -0.304 0.174 -0.457 0.259 -0.215 0.119 -0.428 0.242 -0.641 0.364l-0.141 0.081a244.608 244.608 0 0 0 -0.61 0.35c-0.168 0.097 -0.337 0.192 -0.505 0.288l-0.168 0.098c-0.67 0.38 -1.336 0.515 -2.101 0.361 -0.42 -0.118 -0.796 -0.347 -1.174 -0.56l-0.282 -0.155L9.722 21.013v-0.101l-0.158 -0.038c-0.194 -0.055 -0.335 -0.149 -0.5 -0.266 -0.203 -0.118 -0.407 -0.232 -0.612 -0.346 -0.457 -0.255 -0.908 -0.518 -1.359 -0.783l-0.152 -0.089 -0.135 -0.08A5.519 5.519 0 0 0 6.481 19.139v-0.101l-0.11 -0.016c-0.158 -0.039 -0.265 -0.099 -0.402 -0.187 -0.136 -0.086 -0.246 -0.152 -0.399 -0.203v-0.101l-0.129 -0.037c-0.199 -0.073 -0.366 -0.171 -0.545 -0.283 -0.211 -0.13 -0.421 -0.256 -0.642 -0.367 -0.24 -0.132 -0.393 -0.312 -0.557 -0.528l-0.094 -0.121c-0.354 -0.478 -0.519 -0.937 -0.522 -1.533l-0.001 -0.099q-0.001 -0.163 -0.001 -0.326l-0.001 -0.235a324.354 324.354 0 0 1 -0.003 -0.769l-0.001 -0.266q-0.002 -0.553 -0.003 -1.106 -0.001 -0.79 -0.005 -1.58 -0.003 -0.557 -0.003 -1.113a100 100 0 0 0 -0.002 -0.664q-0.002 -0.313 -0.001 -0.625 0 -0.114 -0.001 -0.228c-0.009 -0.828 0.245 -1.574 0.811 -2.193 0.289 -0.285 0.617 -0.453 0.978 -0.628 0.273 -0.133 0.524 -0.287 0.777 -0.454 0.214 -0.141 0.431 -0.266 0.657 -0.387 0.181 -0.097 0.36 -0.197 0.539 -0.298l0.211 -0.119 0.106 -0.06q0.146 -0.082 0.293 -0.164c0.469 -0.262 0.933 -0.531 1.396 -0.803a26.38 26.38 0 0 1 0.872 -0.491c0.125 -0.069 0.247 -0.142 0.368 -0.218C10.38 2.649 10.706 2.483 11.038 2.329l0.093 -0.043c0.755 -0.319 1.651 -0.133 2.34 0.254" /><path d="M14.807 9.038 14.886 9.114v0.203h-0.101l-0.038 0.108c-0.071 0.163 -0.159 0.299 -0.259 0.446l-0.104 0.153L14.278 10.177a97.671 97.671 0 0 0 -0.203 0.304c-0.18 -0.028 -0.305 -0.073 -0.459 -0.171 -0.566 -0.321 -1.335 -0.402 -1.968 -0.241 -0.179 0.125 -0.187 0.165 -0.231 0.37 -0.01 0.081 -0.019 0.162 -0.025 0.244h0.101l0.087 0.094c0.143 0.135 0.264 0.173 0.451 0.232l0.1 0.032c0.261 0.082 0.525 0.153 0.79 0.225 0.554 0.15 1.044 0.341 1.51 0.684l0.139 0.095c0.401 0.378 0.522 0.896 0.538 1.434 -0.016 0.566 -0.273 1.067 -0.677 1.459 -0.893 0.726 -2.108 0.808 -3.211 0.697 -0.233 -0.032 -0.46 -0.083 -0.688 -0.14l-0.182 -0.039c-0.508 -0.123 -1.031 -0.376 -1.388 -0.771 0.082 -0.179 0.189 -0.334 0.304 -0.494l0.108 -0.151L9.468 13.924h0.101l0.032 -0.104c0.093 -0.198 0.227 -0.343 0.373 -0.503 0.134 0.063 0.226 0.121 0.342 0.218 0.295 0.218 0.678 0.29 1.025 0.389l0.152 0.051c0.526 0.027 0.978 -0.006 1.468 -0.203v-0.608c-0.185 -0.092 -0.37 -0.171 -0.563 -0.244l-0.107 -0.041c-0.265 -0.098 -0.532 -0.176 -0.804 -0.247 -0.567 -0.151 -1.118 -0.337 -1.563 -0.734l-0.136 -0.12c-0.343 -0.39 -0.492 -0.77 -0.491 -1.288l0 -0.123c0.006 -0.305 0.054 -0.538 0.221 -0.798l0.079 -0.152c0.508 -0.626 1.246 -0.967 2.04 -1.054 1.15 -0.097 2.182 0.067 3.169 0.674"/>    
</symbol>
  </defs>
</svg>
